<svg width="25" height="21" viewBox="0 0 25 21" fill="none" xmlns="http://www.w3.org/2000/svg">
<path d="M21.9227 5.86766C21.9374 6.08061 21.9374 6.29355 21.9374 6.50846C21.9374 13.0568 16.9524 20.609 7.83695 20.609V20.605C5.14423 20.609 2.50744 19.8376 0.240601 18.3833C0.632145 18.4304 1.02565 18.454 1.42014 18.455C3.65165 18.4569 5.81937 17.7082 7.57494 16.3295C5.45432 16.2892 3.59473 14.9065 2.9451 12.888C3.68796 13.0313 4.45338 13.0018 5.1825 12.8026C2.87052 12.3355 1.20719 10.3042 1.20719 7.94511C1.20719 7.92352 1.20719 7.90291 1.20719 7.8823C1.89608 8.266 2.66739 8.47894 3.45637 8.50249C1.27883 7.0472 0.607612 4.15037 1.92257 1.88549C4.43866 4.98154 8.15097 6.8637 12.1361 7.0629C11.7367 5.34168 12.2823 3.53803 13.5698 2.32807C15.5658 0.451793 18.705 0.547962 20.5813 2.54297C21.6911 2.32414 22.7549 1.91689 23.7283 1.33988C23.3584 2.48704 22.5841 3.46148 21.5498 4.08069C22.5321 3.9649 23.4918 3.7019 24.3956 3.30055C23.7303 4.29756 22.8923 5.16603 21.9227 5.86766Z" fill="black"/>
</svg>
