<svg width="30" height="30" viewBox="0 0 30 30" fill="none" xmlns="http://www.w3.org/2000/svg">
<path d="M23.6749 7.11605C22.1353 6.40964 20.4844 5.88918 18.7582 5.59109C18.7268 5.58534 18.6954 5.59972 18.6792 5.62847C18.4669 6.00611 18.2317 6.49877 18.067 6.886C16.2104 6.60805 14.3633 6.60805 12.5448 6.886C12.38 6.49017 12.1363 6.00611 11.923 5.62847C11.9068 5.60068 11.8754 5.5863 11.844 5.59109C10.1188 5.88823 8.46782 6.40868 6.92731 7.11605C6.91397 7.1218 6.90254 7.1314 6.89496 7.14385C3.76346 11.8222 2.90561 16.3856 3.32644 20.8925C3.32835 20.9145 3.34073 20.9356 3.35786 20.949C5.42394 22.4663 7.42528 23.3874 9.38946 23.9979C9.42089 24.0075 9.4542 23.996 9.4742 23.9701C9.93883 23.3357 10.353 22.6666 10.7081 21.9631C10.7291 21.9219 10.7091 21.873 10.6662 21.8567C10.0093 21.6075 9.38374 21.3036 8.78201 20.9586C8.73441 20.9308 8.7306 20.8627 8.77439 20.8301C8.90102 20.7352 9.02768 20.6365 9.14859 20.5368C9.17046 20.5186 9.20095 20.5148 9.22667 20.5263C13.1798 22.3311 17.4595 22.3311 21.366 20.5263C21.3917 20.5138 21.4222 20.5177 21.445 20.5359C21.566 20.6356 21.6926 20.7352 21.8202 20.8301C21.864 20.8627 21.8611 20.9308 21.8135 20.9586C21.2118 21.3103 20.5862 21.6075 19.9283 21.8557C19.8855 21.872 19.8664 21.9219 19.8874 21.9631C20.2501 22.6656 20.6643 23.3347 21.1204 23.9692C21.1394 23.996 21.1737 24.0075 21.2051 23.9979C23.1788 23.3874 25.1801 22.4663 27.2462 20.949C27.2643 20.9356 27.2758 20.9155 27.2777 20.8934C27.7813 15.683 26.4341 11.1571 23.7063 7.1448C23.6996 7.1314 23.6882 7.1218 23.6749 7.11605ZM11.2985 18.1483C10.1083 18.1483 9.12763 17.0556 9.12763 15.7137C9.12763 14.3718 10.0893 13.2792 11.2985 13.2792C12.5171 13.2792 13.4883 14.3814 13.4692 15.7137C13.4692 17.0556 12.5076 18.1483 11.2985 18.1483ZM19.3247 18.1483C18.1346 18.1483 17.1539 17.0556 17.1539 15.7137C17.1539 14.3718 18.1155 13.2792 19.3247 13.2792C20.5434 13.2792 21.5145 14.3814 21.4955 15.7137C21.4955 17.0556 20.5434 18.1483 19.3247 18.1483Z" fill="black"/>
</svg>
